{"title":"8 Simple Rules 1x01 Pilot DvDRip_XviD-FoV","uid":7190336,"size":183820290,"categoryP":"video","categoryS":"tv_shows","magnet":"?xt=urn:btih:b61e422974dbaed1dc11094bea1a8322b0d7c237&amp;dn=8+Simple+Rules+1x01+Pilot+DvDRip_XviD-FoV&amp;tr=udp%3A%2F%2Ftracker.openbittorrent.com%3A80&amp;tr=udp%3A%2F%2Fopen.demonii.com%3A1337&amp;tr=udp%3A%2F%2Ftracker.coppersurfer.tk%3A6969&amp;tr=udp%3A%2F%2Fexodus.desync.com%3A6969","seeders":1,"leechers":0,"uploader":"Mowale3_Elnet","files":1,"time":1334594632,"description":"Format                                   : AVI\nFormat/Info                              : Audio Video Interleave\nFile size                                : 175 MiB\nDuration                                 : 21mn 40s\nOverall bit rate mode                    : Variable\nOverall bit rate                         : 1 130 Kbps\nWriting application                      : Nandub v1.0rc2\nWriting library                          : Nandub build 1853/release\n\nVideo\nID                                       : 0\nFormat                                   : MPEG-4 Visual\nFormat profile                           : Advanced Simple@L5\nFormat settings, BVOP                    : 2\nFormat settings, QPel                    : No\nFormat settings, GMC                     : No warppoints\nFormat settings, Matrix                  : Default (H.263)\nMuxing mode                              : Packed bitstream\nCodec ID                                 : XVID\nCodec ID/Hint                            : XviD\nDuration                                 : 21mn 40s\nBit rate                                 : 985 Kbps\nWidth                                    : 624 pixels\nHeight                                   : 352 pixels\nDisplay aspect ratio                     : 16:9\nFrame rate                               : 23.976 fps\nColor space                              : YUV\nChroma subsampling                       : 4:2:0\nBit depth                                : 8 bits\nScan type                                : Progressive\nCompression mode                         : Lossy\nBits/(Pixel*Frame)                       : 0.187\nStream size                              : 153 MiB (87%)\nWriting library                          : XviD 1.2.0SMP (UTC 2006-01-08)\n\nAudio\nID                                       : 1\nFormat                                   : MPEG Audio\nFormat version                           : Version 1\nFormat profile                           : Layer 3\nMode                                     : Joint stereo\nMode extension                           : MS Stereo\nCodec ID                                 : 55\nCodec ID/Hint                            : MP3\nDuration                                 : 21mn 40s\nBit rate mode                            : Variable\nBit rate                                 : 132 Kbps\nChannel(s)                               : 2 channels\nSampling rate                            : 48.0 KHz\nCompression mode                         : Lossy\nDelay relative to video                  : 8ms\nStream size                              : 20.5 MiB (12%)\nAlignment                                : Aligned on interleaves\nInterleave, duration                     : 24 ms (0.58 video frame)\nInterleave, preload duration             : 372 ms\n","torrent":{"xt":"urn:btih:b61e422974dbaed1dc11094bea1a8322b0d7c237","amp;dn":"8+Simple+Rules+1x01+Pilot+DvDRip_XviD-FoV","amp;tr":["udp%3A%2F%2Ftracker.openbittorrent.com%3A80","udp%3A%2F%2Fopen.demonii.com%3A1337","udp%3A%2F%2Ftracker.coppersurfer.tk%3A6969","udp%3A%2F%2Fexodus.desync.com%3A6969"],"infoHash":"b61e422974dbaed1dc11094bea1a8322b0d7c237","infoHashBuffer":{"type":"Buffer","data":[182,30,66,41,116,219,174,209,220,17,9,75,234,26,131,34,176,215,194,55]},"announce":[],"urlList":[]}}